<svg width="260" height="260" viewBox="0 0 260 260" fill="none" xmlns="http://www.w3.org/2000/svg">
<path d="M55.8813 199.816C55.8813 199.816 27.4784 179.59 19.3018 145.163C11.1249 110.735 23.6049 68.9915 47.2741 47.9045C70.9431 26.818 113.547 41.0192 132.482 58.6633C151.417 76.3074 151.417 76.3074 151.417 76.3074C151.417 76.3074 169.492 86.2051 193.161 85.3445C216.83 84.4839 237.917 116.76 243.511 142.15C249.105 167.54 235.765 201.107 235.765 201.107L55.8813 199.816Z" fill="#D1EBFA"/>
<path d="M39.743 202.87C33.9128 198.647 21.8719 187.924 18.0107 169.262C16.4083 161.517 17.458 153.978 19.7322 146.891C25.4203 168.724 39.1359 184.641 47.9422 193.039H39.743V202.87ZM238.965 193.039H238.537C240.632 186.288 243.324 176.035 244.403 165.133C245.04 170.815 244.508 176.708 242.65 183.463C241.616 187.223 240.336 190.389 238.965 193.039ZM230.978 112.175C221.577 97.2114 208.335 85.3278 194.089 85.3278C193.781 85.3278 193.47 85.3336 193.161 85.3445C192.174 85.3804 191.199 85.3975 190.233 85.3975C168.018 85.3975 151.417 76.3074 151.417 76.3074C151.417 76.3074 151.417 76.3074 132.482 58.6633C131.456 57.707 130.359 56.759 129.2 55.8282C139.812 50.3391 152.386 38.596 170.701 38.596C173.201 38.596 175.806 38.8144 178.53 39.298C205.21 44.0315 231.031 58.2327 232.322 89.218C232.761 99.7459 231.908 106.796 230.978 112.175Z" fill="#D1EAF9"/>
<path d="M238.537 193.039H201.426C205.03 183.459 209.042 169.978 207.857 159.794C205.805 142.15 195.954 125.367 175.84 112.456C168.218 107.564 156.234 103.969 143.193 103.195C143.99 98.3351 144.025 93.2116 143.779 90.5086C143.349 85.775 141.09 81.9016 141.09 81.9016C141.09 81.9016 136.842 79.4924 131.412 79.4924C129.769 79.4924 128.017 79.7134 126.242 80.288C118.604 82.7622 115.914 94.5968 116.775 100.837C117.02 102.615 117.464 104.144 118.052 105.486C104.905 108.906 92.8018 116.163 85.1255 128.809C73.8551 147.378 74.5706 166.89 77.5954 180.687V193.039H47.9422C39.1359 184.641 25.4203 168.724 19.7322 146.891C24.7871 131.14 35.8922 117.621 37.376 109.013C39.5279 96.5333 34.7941 81.041 54.5901 68.9915C74.3855 56.9416 109.674 61.2451 123.015 58.2327C125.018 57.7803 127.069 56.9307 129.2 55.8283C130.359 56.7591 131.456 57.707 132.482 58.6633C151.417 76.3074 151.417 76.3074 151.417 76.3074C151.417 76.3074 168.018 85.3975 190.233 85.3975C191.199 85.3975 192.174 85.3804 193.161 85.3445C193.47 85.3336 193.781 85.3278 194.089 85.3278C208.335 85.3278 221.577 97.2114 230.978 112.175C229.172 122.626 227.079 126.766 233.613 137.847C239.627 148.045 243.417 156.335 244.403 165.133C243.324 176.035 240.632 186.288 238.537 193.039Z" fill="#B0D6F2"/>
<path d="M201.426 193.039H165.293C165.895 190.875 167.34 182.926 167.34 182.926C167.34 182.926 155.075 172.418 154.43 170.696C154 169.549 154.215 148.283 152.385 138.492C150.557 128.702 148.19 126.729 143.241 124.291C138.127 121.77 130.545 119.413 130.545 119.413C130.545 119.413 132.052 122.892 133.45 131.069C134.85 139.246 136.14 153.016 136.463 162.484C136.756 171.068 136.96 189.646 136.996 193.039H121.782C122.04 190.61 123.056 180.734 122.584 179.698C122.377 179.24 117.356 178.976 111.27 178.823V139.999C111.27 139.999 105.082 139.566 98.3471 139.566C92.0618 139.566 85.3008 139.943 82.6519 141.397C77.1654 144.409 77.5954 154.846 77.5954 154.846V180.687C74.5706 166.89 73.8551 147.378 85.1256 128.809C92.8018 116.163 104.905 108.906 118.052 105.486C118.111 105.62 118.171 105.752 118.232 105.882C117.801 109.313 116.952 115.731 116.56 116.437C116.022 117.405 116.022 117.405 116.022 117.405L113.332 119.234C113.332 119.234 118.496 126.55 124.844 127.733C125.706 127.895 126.441 127.964 127.067 127.964C131.055 127.964 130.653 125.152 130.653 125.152L129.685 123.107L130.529 115.792C131.191 115.894 131.864 115.95 132.535 115.95C135.323 115.95 138.08 114.997 139.905 112.564C141.567 110.348 142.595 106.846 143.193 103.195C156.234 103.969 168.218 107.564 175.84 112.456C195.954 125.367 205.805 142.15 207.857 159.794C209.042 169.978 205.03 183.459 201.426 193.039Z" fill="#95C3EB"/>
<path d="M225.921 138.528H202.718C201.283 138.528 200.118 137.364 200.118 135.928V124.344C200.118 122.909 201.283 121.744 202.718 121.744H225.921C227.357 121.744 228.521 122.909 228.521 124.344V135.928C228.521 137.364 227.357 138.528 225.921 138.528Z" fill="#599FDC"/>
<path d="M214.319 145.091L217.996 136.376H210.643L214.319 145.091Z" fill="#599FDC"/>
<path d="M214.232 127.254H220.874V128.226L224.13 126.349L220.874 124.471V125.443H214.232V127.254Z" fill="#293D8A"/>
<path d="M224.13 131.074H217.488V130.102L214.232 131.979L217.488 133.856V132.884H224.13V131.074Z" fill="white"/>
<path d="M210.155 132.782L209.839 132.897C209.839 132.897 208.853 131.772 208.342 130.547C207.83 129.321 207.812 127.825 207.812 127.825L208.044 127.728L206.639 124.367C206.389 124.562 206.15 124.814 205.957 125.14C205.162 126.483 205.241 128.545 206.041 130.558C206.84 132.572 207.695 134.368 209.255 135.497C210.175 136.164 210.964 136.281 211.577 136.184L210.155 132.782Z" fill="#293D8A"/>
<path d="M211.164 132.386L210.727 132.545L212.164 135.986C212.327 135.933 212.473 135.868 212.599 135.799C212.97 135.595 213.133 135.149 212.977 134.755L212.226 132.863C212.059 132.443 211.589 132.231 211.164 132.386Z" fill="#293D8A"/>
<path d="M207.737 123.778C207.56 123.841 207.368 123.927 207.174 124.041L208.608 127.474L209.091 127.273C209.51 127.098 209.713 126.621 209.547 126.198L208.793 124.262C208.63 123.842 208.161 123.624 207.737 123.778Z" fill="#293D8A"/>
<path d="M77.5955 193.576V154.846C77.5955 154.846 77.1654 144.409 82.6519 141.397C88.139 138.384 111.27 139.999 111.27 139.999V193.576H77.5955Z" fill="#3A76C4"/>
<path d="M118.496 103.742C118.496 103.742 117.098 115.469 116.56 116.437C116.022 117.405 116.022 117.405 116.022 117.405L113.332 119.234C113.332 119.234 118.496 126.55 124.844 127.733C131.191 128.917 130.653 125.152 130.653 125.152L129.685 123.107L130.977 111.918C130.977 111.918 119.464 106.647 118.496 103.742Z" fill="#F57C83"/>
<path d="M109.997 120.203L114.192 118.373C114.192 118.373 116.882 122.784 123.122 125.367C129.362 127.949 129.47 126.443 129.792 125.367C130.115 124.291 129.685 123.107 129.685 123.107L130.147 119.341L132.642 120.172L141.304 190.241L119.034 191.317L109.997 120.203Z" fill="white"/>
<path d="M130.545 119.413C130.545 119.413 132.052 122.892 133.45 131.069C134.85 139.246 136.14 153.016 136.463 162.484C136.785 171.952 137.001 193.576 137.001 193.576C137.001 193.576 164.758 193.576 165.081 193.576C165.404 193.576 167.34 182.926 167.34 182.926C167.34 182.926 155.075 172.418 154.43 170.696C154 169.549 154.215 148.283 152.385 138.492C150.557 128.702 148.19 126.729 143.241 124.291C138.127 121.77 130.545 119.413 130.545 119.413Z" fill="#293D8A"/>
<path d="M145.177 181.249C145.034 181.249 144.917 181.132 144.917 180.989C144.917 180.22 144.78 169.291 144.649 158.722C144.516 148.151 144.38 137.221 144.38 136.448C144.38 136.304 144.496 136.188 144.64 136.188C144.783 136.188 144.9 136.304 144.9 136.448C144.9 137.217 145.036 148.146 145.168 158.715C145.3 169.285 145.437 180.216 145.437 180.989C145.437 181.132 145.321 181.249 145.177 181.249Z" fill="#788CBD"/>
<path d="M89.2325 178.622L89.0178 193.576H121.724C121.724 193.576 123.122 180.881 122.584 179.698C122.047 178.514 89.2325 178.622 89.2325 178.622Z" fill="#293D8A"/>
<path d="M130.209 118.572C128.788 118.051 126.965 117.189 125.633 116.114C123.298 114.232 121.802 111.99 120.833 109.79C121.912 111.017 123.106 112.078 124.306 113.102C125.825 114.397 128.105 115.415 130.529 115.792L130.209 118.572Z" fill="#945168"/>
<path d="M141.09 81.9016C141.09 81.9016 143.349 85.775 143.779 90.5086C144.21 95.2427 143.779 107.4 139.905 112.564C136.033 117.728 127.964 116.222 124.305 113.102C120.949 110.238 117.635 107.077 116.775 100.837C115.914 94.5968 118.604 82.7622 126.242 80.288C133.881 77.8133 141.09 81.9016 141.09 81.9016Z" fill="#F57C83"/>
<path d="M150.795 186.813C150.795 186.813 150.415 186.813 149.838 186.797C149.703 186.792 149.552 186.797 149.395 186.792C148.84 186.776 148.164 186.761 147.482 186.74C147.332 186.735 147.176 186.729 147.025 186.724C146.349 186.709 145.772 186.792 145.231 186.761H145.215C145.101 186.755 144.934 186.771 144.799 186.776C144.732 186.782 144.669 186.787 144.628 186.782C144.316 186.724 144.253 186.652 143.915 186.501C143.478 186.303 137.565 184.983 132.755 185.013C127.951 185.034 123.64 185.362 122.938 184.774C122.231 184.176 121.805 178.14 125.908 177.744L130.952 179.657C130.952 179.657 142.47 178.29 146.692 181.405C150.925 184.519 150.795 186.813 150.795 186.813Z" fill="#F57C83"/>
<path d="M145.215 186.761C145.101 186.755 144.934 186.771 144.799 186.776C144.695 186.61 144.476 186.308 144.357 186.183C143.057 184.857 139.916 183.999 138.778 183.724C138.674 183.698 138.605 183.594 138.632 183.49C138.653 183.386 138.762 183.323 138.871 183.344C140.53 183.745 144.05 184.77 145.049 186.449C145.08 186.495 145.163 186.657 145.215 186.761Z" fill="#293D8A"/>
<path d="M147.484 186.74C147.333 186.736 147.177 186.732 147.026 186.723C145.607 184.135 143.284 183.392 140.415 182.469L140.245 182.412C140.146 182.379 140.086 182.268 140.121 182.165C140.154 182.067 140.26 182.007 140.368 182.041L140.533 182.097C143.567 183.071 146.009 183.853 147.484 186.74Z" fill="#293D8A"/>
<path d="M149.839 186.797C149.703 186.793 149.553 186.795 149.396 186.791C148.535 184.981 145.686 181.952 141.917 181.246C141.808 181.228 141.737 181.127 141.756 181.019C141.779 180.915 141.879 180.845 141.983 180.863C145.866 181.592 148.999 184.764 149.839 186.797Z" fill="#293D8A"/>
<path d="M119.357 95.5115C119.357 95.5115 121.724 94.3816 123.391 91.208C125.059 88.0344 124.844 85.1833 124.844 85.1833C124.844 85.1833 127.856 84.6992 132.375 86.0439C136.893 87.3886 142.272 89.218 146.791 86.6357C151.31 84.0533 151.31 79.9115 149.104 78.1903C146.634 76.2622 141.735 77.4368 141.735 77.4368C141.735 77.4368 143.617 75.608 142.595 74.5321C141.573 73.4563 137.862 74.855 137.862 74.855C137.862 74.855 133.343 71.2509 124.79 71.681C116.237 72.1115 112.148 78.0827 111.664 84.7527C111.18 91.4233 113.601 98.0933 113.601 98.0933L119.357 95.5115Z" fill="#293D8A"/>
<path d="M136.874 106.485C136.776 106.485 136.672 106.482 136.562 106.477C135.929 106.453 135.133 106.348 134.589 106.008C134.429 105.907 134.49 105.645 134.687 105.645C134.687 105.645 134.687 105.645 134.688 105.645C135.026 105.646 135.356 105.748 135.693 105.774C136.007 105.797 136.324 105.81 136.638 105.825C136.821 105.833 137.037 105.85 137.258 105.85C137.588 105.85 137.925 105.812 138.166 105.653C139.216 104.958 137.174 104.1 136.742 103.782C135.838 103.115 136.019 101.965 136.114 100.979C136.236 99.7105 136.224 98.3231 136.709 97.1282C136.744 97.0429 136.833 96.9977 136.916 96.9977C137.01 96.9977 137.095 97.0554 137.084 97.1791C136.948 98.7017 136.596 100.204 136.5 101.734C136.459 102.371 136.413 103.057 136.982 103.465C137.393 103.759 137.892 103.9 138.299 104.201C138.652 104.463 139.004 104.884 138.941 105.353C138.886 105.77 138.546 106.016 138.195 106.19C137.724 106.424 137.349 106.485 136.874 106.485Z" fill="#945168"/>
<path d="M141.107 100.706C140.946 101.613 140.287 102.254 139.633 102.138C138.98 102.023 138.58 101.194 138.741 100.287C138.901 99.3803 139.561 98.7387 140.214 98.8541C140.867 98.9695 141.267 99.7989 141.107 100.706Z" fill="#293D8A"/>
<path d="M132.875 99.9872C132.729 100.966 132.04 101.674 131.335 101.569C130.63 101.464 130.176 100.586 130.322 99.6075C130.467 98.6289 131.157 97.9207 131.862 98.0257C132.567 98.1308 133.02 99.009 132.875 99.9872Z" fill="#293D8A"/>
<path d="M139.19 96.9675C139.693 97.0523 140.2 96.9654 140.707 97.0013C140.83 97.0096 140.95 97.0278 141.072 97.0398C141.158 97.0476 140.91 97.0138 141.031 97.0335L141.108 97.0465C141.172 97.058 141.235 97.071 141.298 97.0861C141.406 97.1126 141.51 97.1531 141.618 97.1771C141.717 97.1984 141.826 97.2213 141.925 97.2166C141.98 97.2093 142.035 97.202 142.091 97.1942L141.986 97.2135L142.192 97.1911C142.481 97.1235 142.658 96.7897 142.578 96.5109C142.554 96.4309 142.519 96.3581 142.468 96.292L142.402 96.2083L142.463 96.278L142.396 96.1896C142.368 96.1417 142.33 96.1033 142.281 96.0747L142.16 95.9821C142.027 95.8895 141.851 95.8355 141.693 95.7949C141.393 95.7174 141.078 95.6779 140.769 95.6763C140.461 95.6748 140.158 95.707 139.853 95.7491C139.585 95.7861 139.287 95.8776 139.069 96.0393C138.901 96.1646 138.797 96.3253 138.826 96.5453C138.851 96.7273 138.994 96.9342 139.19 96.9675Z" fill="#293D8A"/>
<path d="M133.452 95.5282C133.384 95.4876 133.314 95.4522 133.242 95.4195C133.181 95.3919 133.014 95.3046 133.14 95.3732L133.002 95.2994C132.793 95.1943 132.577 95.1241 132.352 95.0669C131.861 94.9416 131.344 94.9099 130.841 94.9629C130.304 95.0196 129.813 95.1496 129.348 95.4299C129.282 95.4699 129.215 95.5084 129.16 95.563C129.123 95.6098 129.087 95.6571 129.051 95.705L129.082 95.6582C128.939 95.7585 128.855 95.9228 128.856 96.0965C128.858 96.2634 128.944 96.4028 129.089 96.4834C129.265 96.5812 129.431 96.5344 129.612 96.4881C129.521 96.4881 129.43 96.4881 129.34 96.4881C129.489 96.511 129.594 96.5172 129.745 96.4839C129.75 96.4829 129.89 96.448 129.798 96.4673C129.711 96.486 129.944 96.4496 129.97 96.446C129.999 96.4418 130.161 96.4257 129.99 96.4423L130.085 96.4314C130.165 96.4215 130.247 96.4111 130.328 96.4049C130.683 96.3763 131.037 96.3602 131.393 96.3487C131.723 96.3378 132.06 96.3352 132.389 96.3493C132.531 96.3555 132.672 96.3602 132.814 96.3643C132.893 96.3664 132.859 96.3789 132.805 96.3617L132.893 96.3846C132.952 96.4007 133.01 96.42 133.066 96.4418C133.296 96.5292 133.571 96.3633 133.656 96.1522C133.749 95.9223 133.67 95.6582 133.452 95.5282Z" fill="#293D8A"/>
<path d="M136.006 110.484C136.5 109.491 137.398 108.764 138.436 108.296C137.535 108.204 133.279 107.81 132.205 108.42C131.002 109.103 132.428 111.846 134.916 111.984C135.177 111.998 135.415 111.977 135.641 111.941C135.661 111.441 135.777 110.945 136.006 110.484Z" fill="#293D8A"/>
<path d="M116.344 104.71C116.344 104.71 116.775 106.378 119.249 108.314C121.724 110.251 125.31 111.667 125.31 111.667L125.597 110.412C125.597 110.412 121.885 108.798 120.164 107.023C118.442 105.248 118.227 104.28 118.227 104.28L116.344 104.71Z" fill="#D6DCEB"/>
<path d="M126.027 109.483C128.019 109.391 129.13 110.965 129.269 111.984C129.408 113.003 128.451 114.146 126.212 113.142C123.432 111.896 124.036 109.576 126.027 109.483Z" fill="#293D8A"/>
<path d="M117.904 92.3915C117.904 92.3915 118.764 86.2087 122.907 82.0092C130.815 73.9944 137.539 74.478 137.539 74.478C137.539 74.478 137.485 73.3486 134.957 72.488C132.583 71.6799 131.514 72.1115 131.514 72.1115C131.514 72.1115 125.005 72.6492 119.518 78.728C114.031 84.8068 113.44 92.5527 113.44 92.5527L117.904 92.3915Z" fill="#D6DCEB"/>
<path d="M117.313 91.638C112.132 90.7603 109.244 94.8121 109.028 98.9004C108.813 102.989 111.784 106.097 115.753 105.786C124.683 105.087 123.66 92.7144 117.313 91.638Z" fill="white"/>
<path d="M114.733 101.813C113.366 101.813 112.21 101.125 111.549 99.9154C110.842 98.6191 110.901 97.0232 111.701 95.8495C111.761 95.7617 111.882 95.7383 111.972 95.7986C112.06 95.8594 112.084 95.9806 112.023 96.0695C111.305 97.123 111.253 98.5593 111.891 99.7282C112.497 100.838 113.566 101.467 114.833 101.421C116.016 101.39 117.019 100.848 117.657 99.8967C118.385 98.8104 118.553 97.3107 118.084 96.0763C117.618 94.8511 116.342 94.016 115.182 94.1679C115.077 94.1814 114.977 94.107 114.963 93.9999C114.949 93.8933 115.023 93.7955 115.131 93.781C116.488 93.6 117.913 94.5277 118.448 95.9374C118.961 97.2868 118.777 98.9259 117.981 100.114C117.271 101.173 116.157 101.776 114.843 101.811L114.733 101.813Z" fill="#7588BB"/>
<path d="M110.965 118.696C110.965 118.696 95.2578 122.569 89.7707 128.809C84.2837 135.049 81.7019 165.819 81.5942 171.521C81.4866 177.223 85.4672 179.59 87.8342 181.204C90.2013 182.818 100.637 185.723 109.028 186.153C117.42 186.583 125.382 186.153 125.382 186.153C125.382 186.153 125.355 184.324 126.645 181.634C127.843 179.139 129.362 178.622 129.362 178.622L122.154 176.04C122.154 176.04 120.892 153.423 118.927 142.473C116.667 129.885 110.965 118.696 110.965 118.696Z" fill="#293D8A"/>
<path d="M137.001 172.426L136.896 172.404C136.764 172.346 136.705 172.192 136.763 172.061C138.235 168.741 139.76 162.222 140.619 157.648L140.689 157.279C140.949 155.933 141.273 154.261 140.627 153.106C140.298 152.517 139.555 151.238 138.84 150.01C138.098 148.734 137.397 147.529 137.203 147.169C136.824 146.467 138.017 144.591 139.744 142.017C140.21 141.321 140.613 140.721 140.848 140.314C141.464 139.249 141.054 138.274 140.579 137.144L140.418 136.755C139.988 135.699 139.499 134.642 139.027 133.619C138.834 133.201 138.64 132.783 138.45 132.362C138.197 131.806 137.944 131.24 137.687 130.668C136.167 127.279 134.595 123.775 132.581 120.389C132.508 120.266 132.548 120.106 132.672 120.033C132.795 119.96 132.955 120 133.028 120.124C135.056 123.534 136.635 127.053 138.161 130.455C138.418 131.027 138.671 131.592 138.923 132.148C139.114 132.567 139.306 132.984 139.498 133.401C139.974 134.429 140.465 135.492 140.9 136.559L141.059 136.943C141.543 138.095 142.043 139.286 141.298 140.574C141.054 140.996 140.647 141.604 140.175 142.306C139.275 143.648 137.401 146.442 137.66 146.922C137.85 147.274 138.549 148.476 139.289 149.748C140.006 150.98 140.751 152.261 141.081 152.852C141.82 154.173 141.476 155.95 141.2 157.377L141.13 157.744C140.817 159.41 139.16 167.937 137.239 172.271C137.196 172.369 137.101 172.426 137.001 172.426Z" fill="#788CBD"/>
<path d="M121.67 173.341C121.603 173.341 121.536 173.315 121.486 173.265C120.263 172.032 114.367 161.824 113.928 159.904C113.688 158.853 114.291 156.188 114.875 153.61C115.327 151.612 115.794 149.547 115.661 148.988C115.462 148.152 113.955 146.92 112.497 145.729C110.736 144.291 108.915 142.803 108.562 141.463C108.161 139.94 108.504 130.405 108.73 124.095C108.812 121.827 108.877 120.035 108.876 119.396C108.876 119.252 108.993 119.136 109.136 119.136C109.28 119.136 109.396 119.252 109.396 119.395C109.397 120.044 109.332 121.84 109.25 124.114C109.038 130.011 108.684 139.881 109.065 141.331C109.375 142.507 111.208 144.005 112.826 145.327C114.421 146.63 115.928 147.861 116.167 148.868C116.328 149.544 115.889 151.481 115.382 153.724C114.838 156.128 114.222 158.852 114.435 159.788C114.866 161.671 120.654 171.688 121.855 172.897C121.956 173 121.955 173.164 121.853 173.265C121.802 173.315 121.736 173.341 121.67 173.341Z" fill="#788CBD"/>
<path d="M100.53 168.876L100.493 168.874C100.351 168.853 100.252 168.722 100.272 168.58C100.462 167.227 103.447 140.291 103.584 138.228C103.594 138.084 103.718 137.972 103.861 137.986C104.004 137.996 104.112 138.12 104.103 138.263C103.966 140.329 100.978 167.299 100.786 168.653C100.768 168.782 100.657 168.876 100.53 168.876Z" fill="#788CBD"/>
<path d="M121.939 176.192L121.841 176.173C121.18 175.905 118.258 174.919 114.559 173.672C107.092 171.154 96.8667 167.706 94.9224 166.695C94.795 166.629 94.7456 166.472 94.8116 166.345C94.8777 166.217 95.0337 166.166 95.1621 166.234C97.071 167.226 107.695 170.809 114.725 173.179C118.433 174.43 121.361 175.417 122.037 175.691C122.17 175.745 122.234 175.896 122.18 176.029C122.139 176.13 122.041 176.192 121.939 176.192Z" fill="#788CBD"/>
<path d="M118.348 186.917C111.778 186.917 99.0386 185.733 89.3614 182.31C89.2257 182.262 89.155 182.113 89.2028 181.978C89.2502 181.843 89.4004 181.772 89.5346 181.82C101.76 186.144 118.862 186.882 122.043 186.168C122.183 186.138 122.322 186.225 122.354 186.365C122.386 186.505 122.297 186.644 122.157 186.676C121.468 186.83 120.137 186.917 118.348 186.917Z" fill="#788CBD"/>
<path d="M43.1391 122.324C45.1791 124.118 47.7626 125.269 49.5528 127.343C50.257 128.16 50.8897 129.029 51.5438 129.885C52.0198 130.508 53.2901 131.541 53.4961 132.324C53.5871 132.669 53.5678 132.202 53.4763 131.856L53.4612 131.813C53.2823 130.227 53.1544 128.636 53.0988 127.041C53.0431 125.45 53.1425 123.853 53.0426 122.265C52.9022 120.024 52.2028 117.855 50.3714 116.451C49.4762 115.765 48.3259 115.347 47.5028 114.586C46.7218 113.863 47.0352 113.036 47.4945 112.23C47.9241 111.475 48.4451 110.734 48.6125 109.866C48.8028 108.879 48.4319 107.86 47.9312 107.02C46.8661 105.231 44.5031 103.237 42.2657 103.504C40.3993 103.728 40.1879 105.88 40.2145 107.38C40.2405 108.838 40.3847 110.291 40.3986 111.751C40.4132 113.249 40.1582 114.72 40.1369 116.212C40.1007 118.75 41.2734 120.684 43.1391 122.324Z" fill="#60A6DF"/>
<path d="M62.0927 145.611C62.6605 144.256 63.3121 142.99 64.1134 141.758C65.2127 140.068 66.4321 138.421 67.1699 136.529C67.9239 134.596 67.8132 132.53 67.8875 130.495C67.9416 129 68.3862 127.508 68.2661 126.009C68.2089 125.29 67.7945 124.127 66.8642 124.246C66.1403 124.338 65.7103 125.236 65.4321 125.808C64.9464 126.808 64.61 127.874 64.2491 128.922C64.1087 129.332 63.974 129.75 63.7962 130.146C63.6927 130.376 63.3635 130.938 63.0531 130.861C62.5243 130.731 63.0042 128.572 63.0827 128.19C63.4774 126.27 64.0718 124.486 64.1545 122.51C64.2741 119.646 64.0515 116.237 61.2503 114.67C60.5176 114.261 59.5899 114.017 58.8941 114.63C58.2077 115.234 58.0138 116.281 57.9119 117.142C57.5993 119.788 58.2218 122.293 59.0694 124.781C59.7693 126.836 60.6034 128.957 60.6642 131.154C60.723 133.27 59.6221 135.144 59.1058 137.143C58.2826 140.327 58.4527 142.016 58.449 143.047C58.4433 144.339 58.4906 145.617 58.5847 146.905C58.6721 148.089 58.7745 149.274 58.9191 150.452C58.9487 150.691 58.9758 150.94 59.0075 151.189C58.5525 150.093 58.3934 148.839 58.0164 147.738C57.3471 145.78 56.5692 143.864 55.9265 141.897C55.3956 140.272 54.8943 138.636 54.1928 137.074C53.5355 135.608 52.7415 134.059 51.5149 132.984C50.7735 132.334 49.8747 131.954 48.883 131.961C48.2489 131.966 47.6789 132.186 47.0732 132.346C46.3277 132.543 45.7413 132.475 45.1281 132.004C43.1204 130.46 42.5098 127.693 41.0235 125.739C39.9149 124.282 37.2846 121.797 35.3504 123.387C34.3244 124.23 34.0415 125.859 34.0953 127.108C34.1629 128.675 34.8477 130.108 35.6632 131.418C36.5306 132.811 37.6502 134.059 38.4473 135.491C38.9185 136.337 38.9923 137.148 38.9173 138.103C38.847 139.002 38.7684 139.873 39.0749 140.74C39.9953 143.345 42.8693 142.981 45.1045 143.049C46.6686 143.097 48.3466 143.33 49.8314 143.83C51.5476 144.408 52.664 145.525 53.2776 147.222C53.7212 148.451 53.9588 149.845 54.795 150.889C55.1881 151.38 55.7086 151.742 56.2811 151.995C57.1527 152.38 59.8104 152.549 59.8301 152.306C59.8957 151.493 60.281 150.636 60.5223 149.865C60.9747 148.418 61.5066 147.008 62.0927 145.611Z" fill="#60A6DF"/>
<path d="M74.4328 145.12C74.2014 143.631 74.2456 141.99 73.5405 140.622C73.49 140.524 73.3569 140.499 73.2659 140.55C72.7605 140.83 72.7397 141.646 72.6981 142.147C72.63 142.977 72.6809 143.809 72.5785 144.636C72.3996 146.09 72.0637 147.589 71.5395 148.959C70.9472 150.51 69.8693 151.389 68.3041 151.873C67.2984 152.183 66.312 152.454 65.4727 153.121C64.7208 153.719 64.1987 154.543 63.8113 155.411C62.7666 157.755 62.269 160.375 61.7843 162.879C61.4583 164.564 61.192 166.258 60.7828 167.927C60.3736 169.595 59.9342 171.254 59.6996 172.958C59.6601 173.044 59.618 173.129 59.5816 173.216C59.4745 173.471 59.8728 173.609 60.0101 173.397C61.6262 170.909 63.5944 168.677 66.2797 167.307C67.4924 166.689 69.1033 166.561 70.1147 165.589C70.8843 164.849 70.9899 163.721 70.875 162.715C70.7236 161.394 70.0908 160.307 69.4309 159.181C69.069 158.562 68.641 157.9 68.7872 157.148C68.925 156.438 69.5146 155.917 70.0996 155.554C71.2161 154.861 72.5213 154.549 73.4354 153.55C74.2846 152.622 74.7552 151.468 74.8493 150.218C74.9746 148.552 74.6876 146.765 74.4328 145.12Z" fill="#60A6DF"/>
<path d="M52.4025 153.707C50.9768 151.87 49.2558 150.286 47.3198 149C46.2867 148.314 43.8494 146.961 43.3576 148.985C43.0692 150.171 44.23 151.338 44.994 152.081C46.1423 153.199 47.4703 154.163 48.439 155.451C47.2395 155.833 45.9863 155.908 44.9441 156.737C43.7102 157.719 43.1568 159.615 44.3802 160.818C44.9763 161.404 45.7669 161.764 46.5093 162.124C47.4744 162.59 48.4573 163.014 49.4465 163.428C51.5826 164.319 53.7456 165.225 55.5672 166.687C57.4236 168.176 59.1692 170.694 59.3164 173.124C59.3309 173.356 59.2425 173.145 59.3809 173.039C59.4568 173.107 59.7116 172.985 59.71 172.85C59.6721 169.243 59.0241 165.81 57.5505 162.507C56.1849 159.445 54.4617 156.36 52.4025 153.707Z" fill="#60A6DF"/>
<path d="M47.478 120.139C48.2645 121.772 49.0869 123.366 49.9602 124.958C50.8006 126.491 51.6403 128.012 52.2688 129.646C53.0431 131.659 53.8548 133.642 54.6733 135.637C55.524 137.711 56.2843 139.824 56.8942 141.981C58.085 146.193 58.9695 150.528 59.4069 154.883C59.6294 157.098 59.7303 159.326 59.6695 161.552C59.6216 163.291 59.4256 165.011 59.2623 166.742C59.0923 168.541 58.9696 170.363 59.1203 172.169C59.2462 173.679 59.4864 175.475 60.6585 176.552C60.8873 176.763 61.2123 176.5 61.0792 176.227C59.6866 173.372 59.7646 170.258 60.0309 167.161C60.178 165.452 60.3819 163.751 60.4396 162.035C60.5129 159.852 60.4271 157.664 60.2217 155.489C59.8177 151.214 58.9654 146.99 57.8599 142.845C57.2925 140.72 56.5911 138.636 55.783 136.589C54.9723 134.539 54.0368 132.544 53.2516 130.484C51.832 126.757 49.6679 123.452 47.7514 119.979C47.6519 119.799 47.3904 119.957 47.478 120.139Z" fill="#3E579E"/>
<path d="M59.4708 150.613C59.696 147.899 59.9362 145.286 60.8514 142.697C61.2778 141.489 61.7952 140.315 62.2071 139.103C62.5471 138.101 63.0562 136.727 62.7941 135.662C62.765 135.543 62.5919 135.549 62.5591 135.662C62.3839 136.271 62.4031 136.938 62.2773 137.561C62.154 138.168 61.9902 138.765 61.8014 139.355C61.4 140.609 60.8753 141.811 60.4208 143.045C59.5431 145.43 59.0922 148.072 59.2841 150.613C59.293 150.733 59.4609 150.733 59.4708 150.613Z" fill="#3E579E"/>
<path d="M43.744 135.016C44.8214 137.619 48.0598 137.769 50.4185 138.352C52.103 138.768 53.3463 139.892 54.2391 141.351C55.2167 142.946 55.8777 144.82 56.4211 146.601L56.4528 146.593C55.7929 143.473 54.8475 139.717 51.632 138.266C49.0551 137.103 45.6594 137.687 44.0113 134.904C43.9303 134.767 43.6788 134.859 43.744 135.016Z" fill="#3E579E"/>
<path d="M57.7678 150.201C57.8963 150.375 58.0138 150.556 58.1459 150.725C58.2114 150.809 58.2779 150.888 58.3606 150.956C58.4454 151.025 58.5442 151.111 58.6601 151.109C58.7085 151.108 58.7423 151.054 58.7163 151.011C58.6633 150.924 58.5671 150.872 58.4922 150.806C58.4147 150.738 58.3362 150.671 58.2613 150.6C58.1105 150.458 57.9727 150.303 57.8255 150.157L57.7678 150.201Z" fill="#3E579E"/>
<path d="M51.0313 158.458C52.8897 159.983 54.6041 161.788 55.966 163.765C56.6171 164.711 57.2182 165.711 57.7631 166.721C58.3585 167.824 58.7491 168.99 59.2155 170.147C59.2509 170.235 59.4115 170.237 59.3991 170.123C59.1411 167.675 57.591 165.577 56.3493 163.541C55.7045 162.483 54.9026 161.63 54.0404 160.748C53.1502 159.837 52.2428 158.975 51.1991 158.241C51.0721 158.151 50.91 158.358 51.0313 158.458Z" fill="#3E579E"/>
<path d="M65.8283 155.576C64.9334 156.083 64.9043 157.497 64.8866 158.4C64.8528 160.134 65.2823 161.763 64.5211 163.415C63.8336 164.908 62.7354 166.155 61.8722 167.541C61.0636 168.838 60.2664 170.497 60.2841 172.059C60.2851 172.149 60.4235 172.201 60.4656 172.109C60.7911 171.399 60.9081 170.594 61.1416 169.851C61.4037 169.015 61.7697 168.256 62.244 167.522C63.0749 166.234 64.0947 165.062 64.7691 163.677C65.4794 162.218 65.3754 160.772 65.3281 159.191C65.2985 158.182 65.1976 156.562 66.0103 155.812C66.1383 155.695 65.975 155.494 65.8283 155.576Z" fill="#3E579E"/>
<path d="M59.8442 172.22C56.239 172.17 49.3719 172.131 49.3719 172.131L51.0713 184.747C51.4534 187.585 53.8761 189.703 56.7398 189.703H59.7007H59.9872H62.9475C65.8117 189.703 68.2344 187.585 68.6166 184.747L70.3159 172.131C70.3159 172.131 63.4488 172.17 59.8442 172.22Z" fill="white"/>
<path d="M234.098 149.036L213.53 189.775L153.57 190.206L172.074 148.462L234.098 149.036Z" fill="#F5F6F9"/>
<path d="M113.774 189.951L113.785 186.691H152.601L170.46 147.529H232.537L234.098 149.036H173.455L154.896 189.919C154.896 189.919 113.774 189.844 113.774 189.951Z" fill="#D1D8E8"/>
<path d="M202.961 171.516C202.284 173.548 198.607 175.118 194.749 175.021C190.891 174.925 188.313 173.2 188.99 171.167C189.668 169.135 193.344 167.566 197.202 167.663C201.06 167.759 203.639 169.485 202.961 171.516Z" fill="#D1D8E8"/>
<path d="M154.897 190.179L154.789 190.155C154.658 190.096 154.6 189.942 154.659 189.811L173.287 148.776H234.098C234.242 148.776 234.358 148.892 234.358 149.036C234.358 149.179 234.242 149.296 234.098 149.296H173.622L155.133 190.026C155.09 190.121 154.995 190.179 154.897 190.179Z" fill="white"/>
<path d="M39.743 208.853H111.072V193.039H39.743V208.853Z" fill="#4F68A9"/>
<path d="M110.665 208.853H239.001V193.039H110.665V208.853Z" fill="#6F83B8"/>
<path d="M39.743 195.943H110.665V193.039H39.743V195.943Z" fill="#3D5192"/>
<path d="M239.001 195.943H110.665V193.039H239.001V195.943Z" fill="#5165A1"/>
<path d="M114.193 193.792H36.3003V189.919H114.193V193.792Z" fill="#647AB4"/>
<path d="M242.121 193.792H113.785V189.919H242.121V193.792Z" fill="#8E9EC7"/>
<path d="M93.0639 106.942H67.8834C66.325 106.942 65.0619 105.679 65.0619 104.12V91.5491C65.0619 89.9912 66.325 88.7276 67.8834 88.7276H93.0639C94.6218 88.7276 95.8854 89.9912 95.8854 91.5491V104.12C95.8854 105.679 94.6218 106.942 93.0639 106.942Z" fill="white"/>
<path d="M103.061 97.8349L93.6042 93.8444V101.825L103.061 97.8349Z" fill="white"/>
<path d="M76.2419 97.8348C76.2419 98.7968 75.4619 99.5763 74.4999 99.5763C73.5379 99.5763 72.7579 98.7968 72.7579 97.8348C72.7579 96.8723 73.5379 96.0928 74.4999 96.0928C75.4619 96.0928 76.2419 96.8723 76.2419 97.8348Z" fill="#293D8A"/>
<path d="M82.2156 97.8348C82.2156 98.7968 81.4356 99.5763 80.4736 99.5763C79.5116 99.5763 78.7316 98.7968 78.7316 97.8348C78.7316 96.8723 79.5116 96.0928 80.4736 96.0928C81.4356 96.0928 82.2156 96.8723 82.2156 97.8348Z" fill="#293D8A"/>
<path d="M88.1894 97.8348C88.1894 98.7968 87.4094 99.5763 86.4474 99.5763C85.4854 99.5763 84.7054 98.7968 84.7054 97.8348C84.7054 96.8723 85.4854 96.0928 86.4474 96.0928C87.4094 96.0928 88.1894 96.8723 88.1894 97.8348Z" fill="#293D8A"/>
<path d="M221.259 50.0562H163.127C159.393 50.0562 156.367 53.0826 156.367 56.8162V84.3944C156.367 88.1275 159.393 91.1544 163.127 91.1544H168.337C168.484 93.6541 168.125 97.3731 166.038 102.128C172.754 99.0298 176.622 94.3779 178.642 91.1544H221.259C224.992 91.1544 228.019 88.1275 228.019 84.3944V56.8162C228.019 53.0826 224.992 50.0562 221.259 50.0562Z" fill="#599FDC"/>
<path d="M196.46 63.1998H167.627C166.835 63.1998 166.193 62.5576 166.193 61.7656C166.193 60.9731 166.835 60.3309 167.627 60.3309H196.46C197.253 60.3309 197.895 60.9731 197.895 61.7656C197.895 62.5576 197.253 63.1998 196.46 63.1998Z" fill="white"/>
<path d="M217.135 71.5556H167.071C166.586 71.5556 166.193 71.1625 166.193 70.6774C166.193 70.1922 166.586 69.7986 167.071 69.7986H217.135C217.62 69.7986 218.014 70.1922 218.014 70.6774C218.014 71.1625 217.62 71.5556 217.135 71.5556Z" fill="#C3E4F7"/>
<path d="M217.135 76.4332H167.071C166.586 76.4332 166.193 76.0396 166.193 75.5544C166.193 75.0692 166.586 74.6756 167.071 74.6756H217.135C217.62 74.6756 218.014 75.0692 218.014 75.5544C218.014 76.0396 217.62 76.4332 217.135 76.4332Z" fill="#C3E4F7"/>
<path d="M206.214 81.6332H167.071C166.586 81.6332 166.193 81.2396 166.193 80.7544C166.193 80.2693 166.586 79.8756 167.071 79.8756H206.214C206.699 79.8756 207.093 80.2693 207.093 80.7544C207.093 81.2396 206.699 81.6332 206.214 81.6332Z" fill="#C3E4F7"/>
<path d="M216.742 63.1998H202.987C202.195 63.1998 201.552 62.5576 201.552 61.7656C201.552 60.9731 202.195 60.3309 202.987 60.3309H216.742C217.534 60.3309 218.176 60.9731 218.176 61.7656C218.176 62.5576 217.534 63.1998 216.742 63.1998Z" fill="white"/>
<path d="M182.075 126.622H166.457C165.883 126.622 165.417 126.156 165.417 125.582V114.913C165.417 114.339 165.883 113.873 166.457 113.873H182.075C182.649 113.873 183.115 114.339 183.115 114.913V125.582C183.115 126.156 182.649 126.622 182.075 126.622Z" fill="white"/>
<path d="M174.374 122.153C174.286 122.153 174.198 122.123 174.126 122.063L165.626 115.043C165.46 114.905 165.436 114.66 165.574 114.494C165.711 114.328 165.957 114.305 166.122 114.442L174.367 121.251L182.402 114.26C182.564 114.119 182.811 114.136 182.952 114.298C183.094 114.461 183.076 114.707 182.914 114.848L174.63 122.056C174.557 122.12 174.465 122.153 174.374 122.153Z" fill="#647AB4"/>
<path d="M165.874 126.331C165.778 126.331 165.681 126.295 165.605 126.223C165.449 126.075 165.443 125.828 165.592 125.672L171.537 119.423C171.684 119.266 171.932 119.26 172.087 119.409C172.244 119.557 172.25 119.804 172.101 119.96L166.157 126.21C166.08 126.29 165.977 126.331 165.874 126.331Z" fill="#647AB4"/>
<path d="M182.658 126.102C182.558 126.102 182.458 126.064 182.382 125.988L176.461 120.051C176.309 119.898 176.309 119.651 176.462 119.499C176.615 119.347 176.862 119.347 177.014 119.5L182.934 125.436C183.086 125.589 183.086 125.836 182.933 125.988C182.857 126.064 182.758 126.102 182.658 126.102Z" fill="#647AB4"/>
<path d="M189.144 113.478C189.144 116.36 186.808 118.696 183.927 118.696C181.045 118.696 178.709 116.36 178.709 113.478C178.709 110.597 181.045 108.26 183.927 108.26C186.808 108.26 189.144 110.597 189.144 113.478Z" fill="#F1494A"/>
<path d="M181.852 111.975L181.844 111.88C181.949 111.927 182.04 111.987 182.117 112.061C182.194 112.136 182.253 112.217 182.294 112.305C182.335 112.393 182.356 112.484 182.356 112.577C182.356 112.734 182.312 112.879 182.224 113.011C182.139 113.14 182.023 113.245 181.877 113.325C181.731 113.402 181.569 113.44 181.39 113.44C181.211 113.44 181.049 113.402 180.903 113.325C180.757 113.245 180.64 113.14 180.552 113.011C180.467 112.879 180.424 112.734 180.424 112.577C180.424 112.451 180.45 112.342 180.503 112.251C180.558 112.158 180.625 112.079 180.705 112.016C180.787 111.953 180.869 111.901 180.948 111.859L180.915 111.975C180.847 111.947 180.779 111.909 180.713 111.859C180.65 111.807 180.597 111.741 180.556 111.661C180.515 111.581 180.494 111.488 180.494 111.38C180.494 111.226 180.534 111.087 180.614 110.963C180.694 110.837 180.801 110.736 180.936 110.662C181.074 110.588 181.225 110.551 181.39 110.551C181.558 110.551 181.708 110.588 181.84 110.662C181.975 110.736 182.082 110.837 182.162 110.963C182.242 111.087 182.282 111.226 182.282 111.38C182.282 111.499 182.258 111.598 182.212 111.678C182.165 111.757 182.108 111.821 182.042 111.867C181.976 111.914 181.913 111.95 181.852 111.975ZM180.99 111.389C180.99 111.463 181.006 111.529 181.039 111.587C181.075 111.645 181.123 111.691 181.184 111.727C181.244 111.76 181.313 111.777 181.39 111.777C181.467 111.777 181.535 111.76 181.592 111.727C181.653 111.691 181.7 111.645 181.733 111.587C181.768 111.529 181.786 111.463 181.786 111.389C181.786 111.279 181.748 111.188 181.671 111.116C181.596 111.042 181.503 111.005 181.39 111.005C181.274 111.005 181.178 111.042 181.101 111.116C181.027 111.188 180.99 111.279 180.99 111.389ZM181.39 112.986C181.522 112.986 181.634 112.946 181.724 112.866C181.815 112.784 181.861 112.685 181.861 112.569C181.861 112.489 181.84 112.418 181.799 112.355C181.757 112.291 181.701 112.242 181.629 112.206C181.558 112.167 181.478 112.148 181.39 112.148C181.302 112.148 181.222 112.167 181.151 112.206C181.079 112.242 181.023 112.291 180.981 112.355C180.94 112.418 180.919 112.489 180.919 112.569C180.919 112.685 180.965 112.784 181.056 112.866C181.147 112.946 181.258 112.986 181.39 112.986ZM183.515 113.482C183.414 113.482 183.305 113.466 183.189 113.436C183.074 113.403 182.979 113.356 182.904 113.296C182.869 113.265 182.84 113.227 182.818 113.18C182.798 113.131 182.789 113.084 182.789 113.04C182.789 112.993 182.808 112.949 182.847 112.908C182.888 112.866 182.946 112.846 183.02 112.846C183.07 112.846 183.131 112.872 183.206 112.924C183.25 112.952 183.298 112.977 183.35 112.999C183.403 113.021 183.456 113.032 183.511 113.032C183.643 113.032 183.758 113.008 183.854 112.961C183.95 112.912 184.025 112.844 184.077 112.759C184.129 112.674 184.155 112.573 184.155 112.458C184.155 112.353 184.13 112.264 184.081 112.189C184.034 112.115 183.971 112.057 183.891 112.016C183.814 111.975 183.73 111.954 183.639 111.954C183.554 111.954 183.48 111.968 183.416 111.995C183.353 112.023 183.295 112.052 183.243 112.082C183.191 112.11 183.138 112.123 183.086 112.123C182.995 112.123 182.928 112.104 182.884 112.066C182.84 112.024 182.812 111.976 182.801 111.921C182.79 111.866 182.787 111.817 182.793 111.773L182.921 110.769C182.932 110.712 182.959 110.665 183.004 110.629C183.05 110.591 183.105 110.571 183.169 110.571H184.362C184.428 110.571 184.483 110.593 184.527 110.637C184.571 110.681 184.593 110.736 184.593 110.802C184.593 110.866 184.571 110.919 184.527 110.963C184.483 111.005 184.428 111.025 184.362 111.025H183.297L183.342 110.988L183.231 111.826L183.177 111.669C183.193 111.642 183.229 111.616 183.284 111.591C183.339 111.566 183.403 111.545 183.474 111.529C183.546 111.51 183.616 111.5 183.685 111.5C183.869 111.5 184.034 111.543 184.18 111.628C184.326 111.711 184.44 111.825 184.523 111.971C184.608 112.114 184.651 112.276 184.651 112.458C184.651 112.664 184.604 112.844 184.51 112.999C184.417 113.153 184.285 113.272 184.114 113.358C183.946 113.44 183.747 113.482 183.515 113.482Z" fill="white"/>
<path d="M236.334 111.558H205.851C204.702 111.558 203.771 110.626 203.771 109.478V104.708C203.771 103.56 204.702 102.628 205.851 102.628H236.334C237.482 102.628 238.414 103.56 238.414 104.708V109.478C238.414 110.626 237.482 111.558 236.334 111.558Z" fill="#293D8A"/>
<path d="M208.051 109.435C207.915 109.435 207.805 109.386 207.722 109.288C207.639 109.191 207.602 109.069 207.613 108.923L207.744 107.766L207.73 107.708L207.656 107.723L206.705 108.41C206.588 108.498 206.465 108.53 206.339 108.505C206.212 108.481 206.11 108.405 206.032 108.279C205.944 108.123 205.927 107.986 205.98 107.869C206.033 107.752 206.124 107.669 206.251 107.62L207.319 107.137L207.364 107.093L207.319 107.049L206.251 106.566C206.114 106.508 206.027 106.415 205.988 106.289C205.949 106.162 205.964 106.035 206.032 105.908C206.11 105.781 206.212 105.706 206.339 105.681C206.465 105.657 206.588 105.684 206.705 105.762L207.656 106.464L207.73 106.478L207.744 106.42L207.613 105.264C207.602 105.117 207.641 104.995 207.73 104.898C207.817 104.8 207.934 104.752 208.081 104.752C208.217 104.752 208.329 104.8 208.417 104.898C208.505 104.995 208.539 105.117 208.519 105.264L208.388 106.42L208.402 106.478L208.476 106.464L209.427 105.776C209.544 105.688 209.669 105.657 209.801 105.681C209.932 105.706 210.032 105.781 210.1 105.908C210.188 106.064 210.205 106.201 210.151 106.318C210.098 106.435 210.007 106.518 209.88 106.566L208.812 107.049L208.769 107.093L208.812 107.137L209.88 107.62C210.018 107.678 210.108 107.772 210.151 107.898C210.195 108.025 210.178 108.152 210.1 108.279C210.032 108.405 209.932 108.481 209.801 108.505C209.669 108.53 209.544 108.503 209.427 108.425L208.476 107.723L208.402 107.708L208.388 107.766L208.519 108.923C208.539 109.069 208.502 109.191 208.41 109.288C208.317 109.386 208.198 109.435 208.051 109.435Z" fill="white"/>
<path d="M214.356 109.435C214.22 109.435 214.11 109.386 214.027 109.288C213.944 109.191 213.907 109.069 213.917 108.923L214.049 107.766L214.034 107.708L213.961 107.723L213.01 108.41C212.893 108.498 212.77 108.53 212.644 108.505C212.517 108.481 212.415 108.405 212.337 108.279C212.249 108.123 212.232 107.986 212.285 107.869C212.338 107.752 212.429 107.669 212.556 107.62L213.624 107.137L213.668 107.093L213.624 107.049L212.556 106.566C212.419 106.508 212.332 106.415 212.293 106.289C212.254 106.162 212.269 106.035 212.337 105.908C212.415 105.781 212.517 105.706 212.644 105.681C212.77 105.657 212.893 105.684 213.01 105.762L213.961 106.464L214.034 106.478L214.049 106.42L213.917 105.264C213.907 105.117 213.946 104.995 214.034 104.898C214.122 104.8 214.239 104.752 214.386 104.752C214.522 104.752 214.634 104.8 214.722 104.898C214.81 104.995 214.844 105.117 214.824 105.264L214.693 106.42L214.707 106.478L214.781 106.464L215.732 105.776C215.848 105.688 215.974 105.657 216.105 105.681C216.237 105.706 216.337 105.781 216.405 105.908C216.493 106.064 216.51 106.201 216.456 106.318C216.403 106.435 216.312 106.518 216.185 106.566L215.117 107.049L215.074 107.093L215.117 107.137L216.185 107.62C216.322 107.678 216.413 107.772 216.456 107.898C216.5 108.025 216.483 108.152 216.405 108.279C216.337 108.405 216.237 108.481 216.105 108.505C215.974 108.53 215.848 108.503 215.732 108.425L214.781 107.723L214.707 107.708L214.693 107.766L214.824 108.923C214.844 109.069 214.807 109.191 214.715 109.288C214.622 109.386 214.503 109.435 214.356 109.435Z" fill="white"/>
<path d="M220.661 109.435C220.525 109.435 220.414 109.386 220.332 109.288C220.248 109.191 220.212 109.069 220.222 108.923L220.354 107.766L220.339 107.708L220.266 107.723L219.314 108.41C219.197 108.498 219.075 108.53 218.949 108.505C218.822 108.481 218.719 108.405 218.642 108.279C218.553 108.123 218.536 107.986 218.59 107.869C218.643 107.752 218.734 107.669 218.861 107.62L219.929 107.137L219.973 107.093L219.929 107.049L218.861 106.566C218.724 106.508 218.636 106.415 218.598 106.289C218.559 106.162 218.574 106.035 218.642 105.908C218.719 105.781 218.822 105.706 218.949 105.681C219.075 105.657 219.197 105.684 219.314 105.762L220.266 106.464L220.339 106.478L220.354 106.42L220.222 105.264C220.212 105.117 220.251 104.995 220.339 104.898C220.427 104.8 220.544 104.752 220.691 104.752C220.827 104.752 220.939 104.8 221.026 104.898C221.115 104.995 221.149 105.117 221.129 105.264L220.998 106.42L221.012 106.478L221.086 106.464L222.037 105.776C222.153 105.688 222.278 105.657 222.41 105.681C222.542 105.706 222.642 105.781 222.71 105.908C222.798 106.064 222.815 106.201 222.761 106.318C222.708 106.435 222.617 106.518 222.49 106.566L221.422 107.049L221.378 107.093L221.422 107.137L222.49 107.62C222.627 107.678 222.717 107.772 222.761 107.898C222.804 108.025 222.788 108.152 222.71 108.279C222.642 108.405 222.542 108.481 222.41 108.505C222.278 108.53 222.153 108.503 222.037 108.425L221.086 107.723L221.012 107.708L220.998 107.766L221.129 108.923C221.149 109.069 221.112 109.191 221.02 109.288C220.927 109.386 220.807 109.435 220.661 109.435Z" fill="white"/>
<path d="M226.965 109.435C226.829 109.435 226.719 109.386 226.637 109.288C226.553 109.191 226.517 109.069 226.527 108.923L226.659 107.766L226.644 107.708L226.571 107.723L225.619 108.41C225.502 108.498 225.38 108.53 225.253 108.505C225.127 108.481 225.024 108.405 224.946 108.279C224.858 108.123 224.841 107.986 224.895 107.869C224.948 107.752 225.039 107.669 225.165 107.62L226.234 107.137L226.278 107.093L226.234 107.049L225.165 106.566C225.029 106.508 224.941 106.415 224.903 106.289C224.863 106.162 224.878 106.035 224.946 105.908C225.024 105.781 225.127 105.706 225.253 105.681C225.38 105.657 225.502 105.684 225.619 105.762L226.571 106.464L226.644 106.478L226.659 106.42L226.527 105.264C226.517 105.117 226.556 104.995 226.644 104.898C226.732 104.8 226.849 104.752 226.995 104.752C227.132 104.752 227.244 104.8 227.332 104.898C227.419 104.995 227.454 105.117 227.434 105.264L227.302 106.42L227.317 106.478L227.391 106.464L228.342 105.776C228.458 105.688 228.583 105.657 228.715 105.681C228.846 105.706 228.946 105.781 229.015 105.908C229.103 106.064 229.12 106.201 229.065 106.318C229.012 106.435 228.922 106.518 228.795 106.566L227.727 107.049L227.683 107.093L227.727 107.137L228.795 107.62C228.932 107.678 229.022 107.772 229.065 107.898C229.109 108.025 229.093 108.152 229.015 108.279C228.946 108.405 228.846 108.481 228.715 108.505C228.583 108.53 228.458 108.503 228.342 108.425L227.391 107.723L227.317 107.708L227.302 107.766L227.434 108.923C227.454 109.069 227.417 109.191 227.325 109.288C227.231 109.386 227.112 109.435 226.965 109.435Z" fill="white"/>
<path d="M233.27 109.435C233.134 109.435 233.024 109.386 232.942 109.288C232.858 109.191 232.822 109.069 232.831 108.923L232.964 107.766L232.948 107.708L232.876 107.723L231.924 108.41C231.807 108.498 231.685 108.53 231.558 108.505C231.432 108.481 231.329 108.405 231.251 108.279C231.163 108.123 231.146 107.986 231.2 107.869C231.253 107.752 231.343 107.669 231.47 107.62L232.539 107.137L232.583 107.093L232.539 107.049L231.47 106.566C231.334 106.508 231.246 106.415 231.207 106.289C231.168 106.162 231.183 106.035 231.251 105.908C231.329 105.781 231.432 105.706 231.558 105.681C231.685 105.657 231.807 105.684 231.924 105.762L232.876 106.464L232.948 106.478L232.964 106.42L232.831 105.264C232.822 105.117 232.861 104.995 232.948 104.898C233.036 104.8 233.153 104.752 233.3 104.752C233.437 104.752 233.549 104.8 233.636 104.898C233.724 104.995 233.759 105.117 233.739 105.264L233.607 106.42L233.622 106.478L233.695 106.464L234.646 105.776C234.763 105.688 234.888 105.657 235.02 105.681C235.151 105.706 235.251 105.781 235.32 105.908C235.407 106.064 235.424 106.201 235.37 106.318C235.317 106.435 235.227 106.518 235.1 106.566L234.032 107.049L233.987 107.093L234.032 107.137L235.1 107.62C235.236 107.678 235.327 107.772 235.37 107.898C235.414 108.025 235.398 108.152 235.32 108.279C235.251 108.405 235.151 108.481 235.02 108.505C234.888 108.53 234.763 108.503 234.646 108.425L233.695 107.723L233.622 107.708L233.607 107.766L233.739 108.923C233.759 109.069 233.722 109.191 233.629 109.288C233.536 109.386 233.417 109.435 233.27 109.435Z" fill="#5DA4DE"/>
</svg>
