<svg width="283" height="255" viewBox="0 0 283 255" fill="none" xmlns="http://www.w3.org/2000/svg"><g filter="url(#a)"><path fill-rule="evenodd" clip-rule="evenodd" d="M200 176H78v-.011a47.48 47.48 0 0 1-1 .011c-24.853 0-45-20.147-45-45 0-16.866 9.279-31.565 23.01-39.27A76.22 76.22 0 0 1 55 90.5C55 49.355 88.355 16 129.5 16c35.491 0 65.186 24.818 72.677 58.046C229.334 75.186 251 97.563 251 125c0 27.159-21.23 49.36-48 50.913V176h-3Z" fill="url(#b)" fill-opacity=".77"/></g><g style="mix-blend-mode:soft-light" filter="url(#c)"><circle cx="77" cy="131" r="45" fill="#848484"/></g><path d="M113.07 199.89c.937-.885 2.481-.326 2.627.95l1.183 10.391c.571 5.013-4.348 8.889-9.101 7.17-4.752-1.719-6.014-7.832-2.335-11.308l7.626-7.203Zm29 0c.937-.885 2.481-.326 2.627.95l1.183 10.391c.571 5.013-4.348 8.889-9.101 7.17-4.752-1.719-6.014-7.832-2.335-11.308l7.626-7.203Zm31 0c.937-.885 2.481-.326 2.627.95l1.183 10.391c.571 5.013-4.348 8.889-9.101 7.17-4.752-1.719-6.014-7.832-2.335-11.308l7.626-7.203Zm-50.001 32.014c.935-.885 2.479-.324 2.626.953l1.193 10.401c.576 5.019-4.335 8.893-9.085 7.167-4.75-1.725-6.018-7.845-2.345-11.32l7.611-7.201Zm29 0c.935-.885 2.479-.324 2.626.953l1.193 10.401c.576 5.019-4.335 8.893-9.085 7.167-4.75-1.725-6.018-7.845-2.345-11.32l7.611-7.201Z" fill="#00D0E2"/><defs><filter id="a" x="0" y="0" width="283" height="224" filterUnits="userSpaceOnUse" color-interpolation-filters="sRGB"><feFlood flood-opacity="0" result="BackgroundImageFix"/><feGaussianBlur in="BackgroundImageFix" stdDeviation="8"/><feComposite in2="SourceAlpha" operator="in" result="effect1_backgroundBlur_4_42"/><feColorMatrix in="SourceAlpha" values="0 0 0 0 0 0 0 0 0 0 0 0 0 0 0 0 0 0 127 0" result="hardAlpha"/><feOffset dy="16"/><feGaussianBlur stdDeviation="16"/><feColorMatrix values="0 0 0 0 0 0 0 0 0 0.2015 0 0 0 0 0.3875 0 0 0 0.2 0"/><feBlend in2="effect1_backgroundBlur_4_42" result="effect2_dropShadow_4_42"/><feBlend in="SourceGraphic" in2="effect2_dropShadow_4_42" result="shape"/><feColorMatrix in="SourceAlpha" values="0 0 0 0 0 0 0 0 0 0 0 0 0 0 0 0 0 0 127 0" result="hardAlpha"/><feOffset dx="1" dy="2"/><feGaussianBlur stdDeviation="7"/><feComposite in2="hardAlpha" operator="arithmetic" k2="-1" k3="1"/><feColorMatrix values="0 0 0 0 1 0 0 0 0 1 0 0 0 0 1 0 0 0 1 0"/><feBlend in2="shape" result="effect3_innerShadow_4_42"/></filter><filter id="c" x="24" y="70" width="120" height="118" filterUnits="userSpaceOnUse" color-interpolation-filters="sRGB"><feFlood flood-opacity="0" result="BackgroundImageFix"/><feColorMatrix in="SourceAlpha" values="0 0 0 0 0 0 0 0 0 0 0 0 0 0 0 0 0 0 127 0" result="hardAlpha"/><feOffset dx="-2" dy="-10"/><feGaussianBlur stdDeviation="3"/><feColorMatrix values="0 0 0 0 0 0 0 0 0 0 0 0 0 0 0 0 0 0 0.22 0"/><feBlend in2="BackgroundImageFix" result="effect1_dropShadow_4_42"/><feBlend in="SourceGraphic" in2="effect1_dropShadow_4_42" result="shape"/><feColorMatrix in="SourceAlpha" values="0 0 0 0 0 0 0 0 0 0 0 0 0 0 0 0 0 0 127 0" result="hardAlpha"/><feOffset dx="22" dy="12"/><feGaussianBlur stdDeviation="11"/><feComposite in2="hardAlpha" operator="arithmetic" k2="-1" k3="1"/><feColorMatrix values="0 0 0 0 1 0 0 0 0 1 0 0 0 0 1 0 0 0 0.74 0"/><feBlend in2="shape" result="effect2_innerShadow_4_42"/></filter><radialGradient id="b" cx="0" cy="0" r="1" gradientUnits="userSpaceOnUse" gradientTransform="matrix(-1.46984 125.82041 -143.5772 -1.67727 109.164 50.114)"><stop stop-color="#fff"/><stop offset="1" stop-color="#99CEFF"/></radialGradient></defs></svg>